<?xml version="1.0" standalone="no"?>
<svg xmlns="http://www.w3.org/2000/svg" xmlns:xlink="http://www.w3.org/1999/xlink" height="900px" width="900px">
  <defs>
    <pattern id="doodad" width="71.59" height="62" viewBox="0 0 34.64101615137755 30" patternUnits="userSpaceOnUse" patternTransform="rotate(120)">
      <rect width="100%" height="100%" fill="rgba(0, 0, 0,1)"/>
      <path d="M-20-20h200v200h-200M33.77 25.5L25.98 21L18.19 25.5L18.19 34.5L25.98 39L33.77 34.5zM16.45 25.5L8.66 21L0.87 25.5L0.87 34.5L8.66 39L16.45 34.5zM7.79 10.5L0 6L-7.79 10.5L-7.79 19.5L0 24L7.79 19.5zM16.45-4.5L8.66-9L0.87-4.5L0.87 4.5L8.66 9L16.45 4.5zM33.77-4.5L25.98-9L18.19-4.5L18.19 4.5L25.98 9L33.77 4.5zM42.43 10.5L34.64 6L26.85 10.5L26.85 19.5L34.64 24L42.43 19.5zM25.11 10.5L17.32 6L9.53 10.5L9.53 19.5L17.32 24L25.11 19.5z" fill="rgba(131, 22, 28,1)"/>
      <path d="M-20-20h200v200h-200M33.21 25.25L24.98 20.5L16.75 25.25L16.75 34.75L24.98 39.5L33.21 34.75zM15.89 25.25L7.66 20.5L-0.57 25.25L-0.57 34.75L7.66 39.5L15.89 34.75zM7.23 10.25L-1 5.5L-9.23 10.25L-9.23 19.75L-1 24.5L7.23 19.75zM15.89-4.75L7.66-9.5L-0.57-4.75L-0.57 4.75L7.66 9.5L15.89 4.75zM33.21-4.75L24.98-9.5L16.75-4.75L16.75 4.75L24.98 9.5L33.21 4.75zM41.87 10.25L33.64 5.5L25.41 10.25L25.41 19.75L33.64 24.5L41.87 19.75zM50.53 25.25L42.3 20.5L34.07 25.25L34.07 34.75L42.3 39.5L50.53 34.75zM24.55 40.25L16.32 35.5L8.09 40.25L8.09 49.75L16.32 54.5L24.55 49.75zM-1.43 25.25L-9.66 20.5L-17.89 25.25L-17.89 34.75L-9.66 39.5L-1.43 34.75zM-1.43-4.75L-9.66-9.5L-17.89-4.75L-17.89 4.75L-9.66 9.5L-1.43 4.75zM24.55-19.75L16.32-24.5L8.09-19.75L8.09-10.25L16.32-5.5L24.55-10.25zM50.53-4.75L42.3-9.5L34.07-4.75L34.07 4.75L42.3 9.5L50.53 4.75zM41.87 40.25L33.64 35.5L25.41 40.25L25.41 49.75L33.64 54.5L41.87 49.75zM7.23 40.25L-1 35.5L-9.23 40.25L-9.23 49.75L-1 54.5L7.23 49.75zM-10.09 10.25L-18.32 5.5L-26.55 10.25L-26.55 19.75L-18.32 24.5L-10.09 19.75zM7.23-19.75L-1-24.5L-9.23-19.75L-9.23-10.25L-1-5.5L7.23-10.25zM41.87-19.75L33.64-24.5L25.41-19.75L25.41-10.25L33.64-5.5L41.87-10.25zM59.19 10.25L50.96 5.5L42.73 10.25L42.73 19.75L50.96 24.5L59.19 19.75zM24.55 10.25L16.32 5.5L8.09 10.25L8.09 19.75L16.32 24.5L24.55 19.75z" fill="rgba(236, 201, 75,1)"/>
    </pattern>
  </defs>
  <rect fill="url(#doodad)" height="200%" width="200%"/>
</svg>
